<svg xmlns="http://www.w3.org/2000/svg" viewBox="0 0 100 100" class="w-full h-full">
  <circle cx="50" cy="50" r="48" fill="#0f172a"/>
  <!-- Yellow Perch Head Portrait -->
  <g transform="translate(5, 5)">
    <!-- Golden Yellow Body -->
    <path d="M15 65 Q25 25 75 20 Q85 45 70 78 Q35 85 15 65 Z" fill="#eab308" stroke="#713f12" stroke-width="3"/>
    <!-- Dark Green Vertical Wedge Bars -->
    <path d="M30 25 L36 65 L26 60 Z" fill="#15803d" opacity="0.9"/>
    <path d="M48 22 L54 70 L42 66 Z" fill="#15803d" opacity="0.9"/>
    <path d="M62 21 L68 62 L58 58 Z" fill="#15803d" opacity="0.9"/>
    <!-- Bright Orange Pelvic Fin -->
    <path d="M25 65 L18 80 L32 74 Z" fill="#f97316" stroke="#713f12" stroke-width="2"/>
    <!-- Eye -->
    <circle cx="32" cy="35" r="7" fill="#fef08a" stroke="#713f12" stroke-width="2"/>
    <circle cx="33" cy="34" r="3.5" fill="#000"/>
    <!-- Spiny Dorsal Crest -->
    <path d="M25 25 L32 8 L38 18 L45 6 L52 16 L60 10 L65 22" fill="#ca8a04" stroke="#713f12" stroke-width="2"/>
  </g>
</svg>
